<mxfile host="65bd71144e" scale="1.2" border="0">
    <diagram id="Aivqml-ADPJbA_GyeIOO" name="Page-1">
        <mxGraphModel dx="1315" dy="686" grid="1" gridSize="10" guides="1" tooltips="1" connect="1" arrows="1" fold="1" page="1" pageScale="1" pageWidth="827" pageHeight="1169" background="#FFFFFF" math="0" shadow="0">
            <root>
                <mxCell id="0"/>
                <mxCell id="1" parent="0"/>
                <mxCell id="601" value="Сформировать трехмерный массив не повторяющимися двузначными числами показать его построчно на экран выводя индексы соответствующего элемента." style="rounded=0;whiteSpace=wrap;html=1;fillColor=#CCCCCC;fontColor=#000000;strokeColor=#000000;fontSize=11;labelBackgroundColor=none;endArrow=classic;" vertex="1" parent="1">
                    <mxGeometry x="10" y="10" width="1220" height="40" as="geometry"/>
                </mxCell>
                <mxCell id="602" value="" style="edgeStyle=orthogonalEdgeStyle;rounded=0;orthogonalLoop=1;jettySize=auto;html=1;fillColor=#FFFFFF;strokeColor=#000000;fontColor=#000000;labelBackgroundColor=none;" edge="1" parent="1" source="603" target="605">
                    <mxGeometry relative="1" as="geometry"/>
                </mxCell>
                <mxCell id="603" value="start" style="ellipse;whiteSpace=wrap;html=1;fillColor=#E6FFCC;fontSize=11;strokeColor=#000000;fontColor=#000000;rounded=0;labelBackgroundColor=none;endArrow=classic;" vertex="1" parent="1">
                    <mxGeometry x="130" y="130" width="80" height="40" as="geometry"/>
                </mxCell>
                <mxCell id="604" value="" style="edgeStyle=orthogonalEdgeStyle;rounded=0;orthogonalLoop=1;jettySize=auto;html=1;fillColor=#FFFFFF;strokeColor=#000000;fontColor=#000000;labelBackgroundColor=none;" edge="1" parent="1" source="605" target="607">
                    <mxGeometry relative="1" as="geometry"/>
                </mxCell>
                <mxCell id="605" value="matrix = CreateRandomMatrix(3, 5, 6, 100)" style="shape=process;whiteSpace=wrap;html=1;backgroundOutline=1;size=0.038461538461538027;fillColor=#CCE5FF;fontSize=11;strokeColor=#000000;fontColor=#000000;rounded=0;labelBackgroundColor=none;endArrow=classic;" vertex="1" parent="1">
                    <mxGeometry x="40" y="210" width="260" height="40" as="geometry"/>
                </mxCell>
                <mxCell id="606" value="" style="edgeStyle=orthogonalEdgeStyle;rounded=0;orthogonalLoop=1;jettySize=auto;html=1;fillColor=#FFFFFF;strokeColor=#000000;fontColor=#000000;labelBackgroundColor=none;" edge="1" parent="1" source="607" target="608">
                    <mxGeometry relative="1" as="geometry"/>
                </mxCell>
                <mxCell id="607" value="PrintMatrix (matrix)" style="shape=process;whiteSpace=wrap;html=1;backgroundOutline=1;size=0.038461538461538027;fillColor=#CCE5FF;fontSize=11;strokeColor=#000000;fontColor=#000000;rounded=0;labelBackgroundColor=none;endArrow=classic;" vertex="1" parent="1">
                    <mxGeometry x="100" y="290" width="140" height="40" as="geometry"/>
                </mxCell>
                <mxCell id="608" value="end" style="ellipse;whiteSpace=wrap;html=1;fillColor=#FFFFFF;fontSize=11;strokeColor=#000000;fontColor=#000000;rounded=0;labelBackgroundColor=none;endArrow=classic;" vertex="1" parent="1">
                    <mxGeometry x="130" y="370" width="80" height="40" as="geometry"/>
                </mxCell>
                <mxCell id="609" value="CreateRandomMatrix" style="shape=process;whiteSpace=wrap;html=1;backgroundOutline=1;size=0.038461538461538027;fillColor=#CCE5FF;fontSize=11;strokeColor=#000000;fontColor=#000000;rounded=0;labelBackgroundColor=none;endArrow=classic;" vertex="1" parent="1">
                    <mxGeometry x="400" y="70" width="180" height="40" as="geometry"/>
                </mxCell>
                <mxCell id="610" value="" style="edgeStyle=orthogonalEdgeStyle;rounded=0;orthogonalLoop=1;jettySize=auto;html=1;fillColor=#FFFFFF;strokeColor=#000000;fontColor=#000000;labelBackgroundColor=none;" edge="1" parent="1" source="611" target="613">
                    <mxGeometry relative="1" as="geometry"/>
                </mxCell>
                <mxCell id="611" value="start" style="ellipse;whiteSpace=wrap;html=1;fillColor=#E6FFCC;fontSize=11;strokeColor=#000000;fontColor=#000000;rounded=0;labelBackgroundColor=none;endArrow=classic;" vertex="1" parent="1">
                    <mxGeometry x="450" y="130" width="80" height="40" as="geometry"/>
                </mxCell>
                <mxCell id="612" value="" style="edgeStyle=orthogonalEdgeStyle;rounded=0;orthogonalLoop=1;jettySize=auto;html=1;fillColor=#FFFFFF;strokeColor=#000000;fontColor=#000000;labelBackgroundColor=none;" edge="1" parent="1" source="613" target="615">
                    <mxGeometry relative="1" as="geometry"/>
                </mxCell>
                <mxCell id="613" value="dim1, dim2, dim3, limit" style="shape=parallelogram;perimeter=parallelogramPerimeter;whiteSpace=wrap;html=1;fixedSize=1;fillColor=#FFFFCC;fontSize=11;strokeColor=#000000;fontColor=#000000;rounded=0;labelBackgroundColor=none;endArrow=classic;" vertex="1" parent="1">
                    <mxGeometry x="410" y="210" width="160" height="40" as="geometry"/>
                </mxCell>
                <mxCell id="614" value="" style="edgeStyle=orthogonalEdgeStyle;rounded=0;orthogonalLoop=1;jettySize=auto;html=1;entryX=0.5;entryY=0;entryDx=0;entryDy=0;fillColor=#FFFFFF;strokeColor=#000000;fontColor=#000000;labelBackgroundColor=none;" edge="1" parent="1" source="615" target="617">
                    <mxGeometry relative="1" as="geometry"/>
                </mxCell>
                <mxCell id="615" value="&lt;span style=&quot;&quot;&gt;originValue[]&lt;/span&gt;&lt;br style=&quot;&quot;&gt;&lt;span style=&quot;&quot;&gt;matrix[dim1, dim2, dim3]&lt;/span&gt;" style="whiteSpace=wrap;html=1;fillColor=#FFFFFF;fontSize=11;strokeColor=#000000;fontColor=#000000;rounded=0;labelBackgroundColor=none;endArrow=classic;" vertex="1" parent="1">
                    <mxGeometry x="400" y="290" width="180" height="40" as="geometry"/>
                </mxCell>
                <mxCell id="616" value="" style="edgeStyle=none;orthogonalLoop=1;jettySize=auto;html=1;fontSize=11;rounded=0;entryX=0.5;entryY=0;entryDx=0;entryDy=0;fillColor=#FFFFFF;strokeColor=#000000;fontColor=#000000;labelBackgroundColor=none;" edge="1" parent="1" source="617" target="620">
                    <mxGeometry relative="1" as="geometry">
                        <mxPoint x="490" y="429.9999999999999" as="targetPoint"/>
                    </mxGeometry>
                </mxCell>
                <mxCell id="617" value="i = 0, dim1 - 1, 1" style="shape=hexagon;perimeter=hexagonPerimeter2;whiteSpace=wrap;html=1;fixedSize=1;fontSize=11;rounded=0;fillColor=#FFFFFF;strokeColor=#000000;fontColor=#000000;labelBackgroundColor=none;endArrow=classic;" vertex="1" parent="1">
                    <mxGeometry x="420" y="360" width="140" height="40" as="geometry"/>
                </mxCell>
                <mxCell id="618" style="edgeStyle=none;orthogonalLoop=1;jettySize=auto;html=1;exitX=1;exitY=0.5;exitDx=0;exitDy=0;fontSize=11;endArrow=classic;endFill=1;entryX=0;entryY=0.5;entryDx=0;entryDy=0;rounded=0;fillColor=#FFFFFF;strokeColor=#000000;fontColor=#000000;labelBackgroundColor=none;" edge="1" parent="1" source="620" target="617">
                    <mxGeometry relative="1" as="geometry">
                        <mxPoint x="490" y="680" as="targetPoint"/>
                        <Array as="points">
                            <mxPoint x="650" y="450"/>
                            <mxPoint x="650" y="770"/>
                            <mxPoint x="290" y="770"/>
                            <mxPoint x="290" y="380"/>
                        </Array>
                    </mxGeometry>
                </mxCell>
                <mxCell id="619" value="" style="edgeStyle=none;rounded=0;orthogonalLoop=1;jettySize=auto;html=1;entryX=0.5;entryY=0;entryDx=0;entryDy=0;fillColor=#FFFFFF;strokeColor=#000000;fontColor=#000000;labelBackgroundColor=none;" edge="1" parent="1" source="620" target="623">
                    <mxGeometry relative="1" as="geometry">
                        <mxPoint x="490" y="497.5" as="targetPoint"/>
                    </mxGeometry>
                </mxCell>
                <mxCell id="620" value="j = 0, dim2 - 1, 1" style="shape=hexagon;perimeter=hexagonPerimeter2;whiteSpace=wrap;html=1;fixedSize=1;fontSize=11;rounded=0;fillColor=#FFFFFF;strokeColor=#000000;fontColor=#000000;labelBackgroundColor=none;endArrow=classic;" vertex="1" parent="1">
                    <mxGeometry x="420" y="430" width="140" height="40" as="geometry"/>
                </mxCell>
                <mxCell id="621" style="edgeStyle=none;rounded=0;orthogonalLoop=1;jettySize=auto;html=1;exitX=1;exitY=0.5;exitDx=0;exitDy=0;entryX=0;entryY=0.5;entryDx=0;entryDy=0;fillColor=#FFFFFF;strokeColor=#000000;fontColor=#000000;labelBackgroundColor=none;" edge="1" parent="1" source="623" target="620">
                    <mxGeometry relative="1" as="geometry">
                        <mxPoint x="580" y="557.5" as="targetPoint"/>
                        <Array as="points">
                            <mxPoint x="630" y="518"/>
                            <mxPoint x="630" y="750"/>
                            <mxPoint x="310" y="750"/>
                            <mxPoint x="310" y="450"/>
                            <mxPoint x="350" y="450.5"/>
                        </Array>
                    </mxGeometry>
                </mxCell>
                <mxCell id="622" value="" style="edgeStyle=orthogonalEdgeStyle;rounded=0;orthogonalLoop=1;jettySize=auto;html=1;fillColor=#FFFFFF;strokeColor=#000000;fontColor=#000000;labelBackgroundColor=none;" edge="1" parent="1" source="623" target="634">
                    <mxGeometry relative="1" as="geometry"/>
                </mxCell>
                <mxCell id="623" value="k = 0, dim3 - 1, 1" style="shape=hexagon;perimeter=hexagonPerimeter2;whiteSpace=wrap;html=1;fixedSize=1;fontSize=11;rounded=0;fillColor=#FFFFFF;strokeColor=#000000;fontColor=#000000;labelBackgroundColor=none;endArrow=classic;" vertex="1" parent="1">
                    <mxGeometry x="420" y="497.5" width="140" height="40" as="geometry"/>
                </mxCell>
                <mxCell id="624" style="edgeStyle=none;rounded=0;orthogonalLoop=1;jettySize=auto;html=1;exitX=1;exitY=0.5;exitDx=0;exitDy=0;entryX=0;entryY=0.5;entryDx=0;entryDy=0;fillColor=#FFFFFF;strokeColor=#000000;fontColor=#000000;labelBackgroundColor=none;" edge="1" parent="1" source="632" target="623">
                    <mxGeometry relative="1" as="geometry">
                        <Array as="points">
                            <mxPoint x="610" y="650"/>
                            <mxPoint x="610" y="730"/>
                            <mxPoint x="330" y="730"/>
                            <mxPoint x="330" y="518"/>
                        </Array>
                        <mxPoint x="490" y="625" as="sourcePoint"/>
                    </mxGeometry>
                </mxCell>
                <mxCell id="625" value="NO" style="edgeLabel;html=1;align=center;verticalAlign=middle;resizable=0;points=[];fontColor=#000000;labelBackgroundColor=#FFFFFF;" vertex="1" connectable="0" parent="624">
                    <mxGeometry x="-0.9766" y="-1" relative="1" as="geometry">
                        <mxPoint x="3" y="-1" as="offset"/>
                    </mxGeometry>
                </mxCell>
                <mxCell id="626" value="matrix" style="shape=parallelogram;perimeter=parallelogramPerimeter;whiteSpace=wrap;html=1;fixedSize=1;fontSize=11;fillColor=#FFFFCC;rounded=0;strokeColor=#000000;fontColor=#000000;labelBackgroundColor=none;endArrow=classic;" vertex="1" parent="1">
                    <mxGeometry x="670" y="397.5" width="140" height="32.5" as="geometry"/>
                </mxCell>
                <mxCell id="627" style="edgeStyle=none;orthogonalLoop=1;jettySize=auto;html=1;exitX=1;exitY=0.5;exitDx=0;exitDy=0;fontSize=11;endArrow=classic;endFill=1;entryX=0.5;entryY=0;entryDx=0;entryDy=0;rounded=0;fillColor=#FFFFFF;strokeColor=#000000;fontColor=#000000;labelBackgroundColor=none;" edge="1" parent="1" source="617" target="626">
                    <mxGeometry relative="1" as="geometry">
                        <mxPoint x="700" y="407.5" as="targetPoint"/>
                        <Array as="points">
                            <mxPoint x="740" y="380"/>
                        </Array>
                        <mxPoint x="600" y="377.5" as="sourcePoint"/>
                    </mxGeometry>
                </mxCell>
                <mxCell id="628" value="end" style="ellipse;whiteSpace=wrap;html=1;fillColor=#FFFFFF;rounded=0;fontSize=11;strokeColor=#000000;fontColor=#000000;labelBackgroundColor=none;endArrow=classic;" vertex="1" parent="1">
                    <mxGeometry x="700" y="457.5" width="80" height="40" as="geometry"/>
                </mxCell>
                <mxCell id="629" value="" style="edgeStyle=none;rounded=0;orthogonalLoop=1;jettySize=auto;html=1;fillColor=#FFFFFF;strokeColor=#000000;fontColor=#000000;labelBackgroundColor=none;" edge="1" parent="1" source="626" target="628">
                    <mxGeometry relative="1" as="geometry"/>
                </mxCell>
                <mxCell id="630" style="rounded=0;orthogonalLoop=1;jettySize=auto;html=1;exitX=0.5;exitY=1;exitDx=0;exitDy=0;fillColor=#FFFFFF;strokeColor=#000000;fontColor=#000000;labelBackgroundColor=none;" edge="1" parent="1" source="632">
                    <mxGeometry relative="1" as="geometry">
                        <mxPoint x="490" y="550" as="targetPoint"/>
                        <Array as="points">
                            <mxPoint x="490" y="710"/>
                            <mxPoint x="370" y="710"/>
                            <mxPoint x="370" y="550"/>
                        </Array>
                    </mxGeometry>
                </mxCell>
                <mxCell id="631" value="YES" style="edgeLabel;html=1;align=center;verticalAlign=middle;resizable=0;points=[];fontColor=#000000;labelBackgroundColor=#FFFFFF;" vertex="1" connectable="0" parent="630">
                    <mxGeometry x="-0.9601" relative="1" as="geometry">
                        <mxPoint as="offset"/>
                    </mxGeometry>
                </mxCell>
                <mxCell id="632" value="matrix[i, j, k]&amp;nbsp;&lt;span style=&quot;color: rgb(32, 33, 36); font-family: arial, sans-serif; font-size: 14px; text-align: left; background-color: rgb(255, 255, 255);&quot;&gt;∈&amp;nbsp;&lt;/span&gt;originValue" style="rhombus;whiteSpace=wrap;html=1;rounded=0;fontSize=11;fillColor=#FFFFFF;strokeColor=#000000;fontColor=#000000;labelBackgroundColor=none;endArrow=classic;" vertex="1" parent="1">
                    <mxGeometry x="400" y="620" width="180" height="60" as="geometry"/>
                </mxCell>
                <mxCell id="633" value="" style="edgeStyle=orthogonalEdgeStyle;rounded=0;orthogonalLoop=1;jettySize=auto;html=1;fillColor=#FFFFFF;strokeColor=#000000;fontColor=#000000;labelBackgroundColor=none;" edge="1" parent="1" source="634" target="632">
                    <mxGeometry relative="1" as="geometry"/>
                </mxCell>
                <mxCell id="634" value="matrix[i, j, k] = Random[0,99]" style="whiteSpace=wrap;html=1;rounded=0;fontSize=11;fillColor=#FFFFFF;strokeColor=#000000;fontColor=#000000;labelBackgroundColor=none;endArrow=classic;" vertex="1" parent="1">
                    <mxGeometry x="400" y="570" width="180" height="25" as="geometry"/>
                </mxCell>
                <mxCell id="635" value="" style="edgeStyle=none;orthogonalLoop=1;jettySize=auto;html=1;fontSize=11;rounded=0;entryX=0.5;entryY=0;entryDx=0;entryDy=0;fillColor=#FFFFFF;strokeColor=#000000;fontColor=#000000;labelBackgroundColor=none;" edge="1" parent="1" source="636" target="639">
                    <mxGeometry relative="1" as="geometry">
                        <mxPoint x="1010" y="399.9999999999999" as="targetPoint"/>
                    </mxGeometry>
                </mxCell>
                <mxCell id="636" value="i = 0, len1 - 1, 1" style="shape=hexagon;perimeter=hexagonPerimeter2;whiteSpace=wrap;html=1;fixedSize=1;fontSize=11;rounded=0;fillColor=#FFFFFF;strokeColor=#000000;fontColor=#000000;labelBackgroundColor=none;endArrow=classic;" vertex="1" parent="1">
                    <mxGeometry x="940" y="330" width="140" height="40" as="geometry"/>
                </mxCell>
                <mxCell id="637" style="edgeStyle=none;orthogonalLoop=1;jettySize=auto;html=1;exitX=1;exitY=0.5;exitDx=0;exitDy=0;fontSize=11;endArrow=classic;endFill=1;entryX=0;entryY=0.5;entryDx=0;entryDy=0;rounded=0;fillColor=#FFFFFF;strokeColor=#000000;fontColor=#000000;labelBackgroundColor=none;" edge="1" parent="1" source="639" target="636">
                    <mxGeometry relative="1" as="geometry">
                        <mxPoint x="1010" y="650" as="targetPoint"/>
                        <Array as="points">
                            <mxPoint x="1140" y="419.5"/>
                            <mxPoint x="1140" y="657.5"/>
                            <mxPoint x="850" y="657.5"/>
                            <mxPoint x="850" y="350.5"/>
                        </Array>
                    </mxGeometry>
                </mxCell>
                <mxCell id="638" value="" style="edgeStyle=none;rounded=0;orthogonalLoop=1;jettySize=auto;html=1;entryX=0.5;entryY=0;entryDx=0;entryDy=0;fillColor=#FFFFFF;strokeColor=#000000;fontColor=#000000;labelBackgroundColor=none;" edge="1" parent="1" source="639" target="642">
                    <mxGeometry relative="1" as="geometry">
                        <mxPoint x="1010" y="467.5" as="targetPoint"/>
                    </mxGeometry>
                </mxCell>
                <mxCell id="639" value="j = 0, len2 - 1, 1" style="shape=hexagon;perimeter=hexagonPerimeter2;whiteSpace=wrap;html=1;fixedSize=1;fontSize=11;rounded=0;fillColor=#FFFFFF;strokeColor=#000000;fontColor=#000000;labelBackgroundColor=none;endArrow=classic;" vertex="1" parent="1">
                    <mxGeometry x="940" y="400" width="140" height="40" as="geometry"/>
                </mxCell>
                <mxCell id="640" style="edgeStyle=none;rounded=0;orthogonalLoop=1;jettySize=auto;html=1;exitX=1;exitY=0.5;exitDx=0;exitDy=0;entryX=0;entryY=0.5;entryDx=0;entryDy=0;fillColor=#FFFFFF;strokeColor=#000000;fontColor=#000000;labelBackgroundColor=none;" edge="1" parent="1" source="642" target="639">
                    <mxGeometry relative="1" as="geometry">
                        <mxPoint x="1100" y="527.5" as="targetPoint"/>
                        <Array as="points">
                            <mxPoint x="1120" y="487.5"/>
                            <mxPoint x="1120" y="637.5"/>
                            <mxPoint x="870" y="637.5"/>
                            <mxPoint x="870" y="420.5"/>
                        </Array>
                    </mxGeometry>
                </mxCell>
                <mxCell id="641" value="" style="edgeStyle=none;rounded=0;orthogonalLoop=1;jettySize=auto;html=1;fillColor=#FFFFFF;strokeColor=#000000;fontColor=#000000;labelBackgroundColor=none;" edge="1" parent="1" source="642" target="653">
                    <mxGeometry relative="1" as="geometry"/>
                </mxCell>
                <mxCell id="642" value="k = 0, len3 - 1, 1" style="shape=hexagon;perimeter=hexagonPerimeter2;whiteSpace=wrap;html=1;fixedSize=1;fontSize=11;rounded=0;fillColor=#FFFFFF;strokeColor=#000000;fontColor=#000000;labelBackgroundColor=none;endArrow=classic;" vertex="1" parent="1">
                    <mxGeometry x="940" y="467.5" width="140" height="40" as="geometry"/>
                </mxCell>
                <mxCell id="643" style="edgeStyle=none;rounded=0;orthogonalLoop=1;jettySize=auto;html=1;entryX=0;entryY=0.5;entryDx=0;entryDy=0;fillColor=#FFFFFF;strokeColor=#000000;fontColor=#000000;labelBackgroundColor=none;" edge="1" parent="1" source="653" target="642">
                    <mxGeometry relative="1" as="geometry">
                        <Array as="points">
                            <mxPoint x="1010" y="617.5"/>
                            <mxPoint x="890" y="617.5"/>
                            <mxPoint x="890" y="487.5"/>
                        </Array>
                        <mxPoint x="1010" y="595" as="sourcePoint"/>
                    </mxGeometry>
                </mxCell>
                <mxCell id="644" style="edgeStyle=none;orthogonalLoop=1;jettySize=auto;html=1;exitX=1;exitY=0.5;exitDx=0;exitDy=0;fontSize=11;endArrow=classic;endFill=1;entryX=0.5;entryY=0;entryDx=0;entryDy=0;rounded=0;fillColor=#FFFFFF;strokeColor=#000000;fontColor=#000000;labelBackgroundColor=none;" edge="1" parent="1" source="636" target="645">
                    <mxGeometry relative="1" as="geometry">
                        <mxPoint x="1210" y="367.5" as="targetPoint"/>
                        <Array as="points">
                            <mxPoint x="1210" y="350.5"/>
                        </Array>
                        <mxPoint x="1120" y="347.5" as="sourcePoint"/>
                    </mxGeometry>
                </mxCell>
                <mxCell id="645" value="end" style="ellipse;whiteSpace=wrap;html=1;fillColor=#FFE6CC;rounded=0;fontSize=11;strokeColor=#000000;fontColor=#000000;labelBackgroundColor=none;endArrow=classic;" vertex="1" parent="1">
                    <mxGeometry x="1171" y="380" width="80" height="40" as="geometry"/>
                </mxCell>
                <mxCell id="646" value="" style="edgeStyle=none;rounded=0;orthogonalLoop=1;jettySize=auto;html=1;fillColor=#FFFFFF;strokeColor=#000000;fontColor=#000000;labelBackgroundColor=none;" edge="1" parent="1" source="647" target="650">
                    <mxGeometry relative="1" as="geometry"/>
                </mxCell>
                <mxCell id="647" value="start" style="ellipse;whiteSpace=wrap;html=1;fillColor=#E6FFCC;fontSize=11;strokeColor=#000000;fontColor=#000000;rounded=0;labelBackgroundColor=none;endArrow=classic;" vertex="1" parent="1">
                    <mxGeometry x="970" y="130" width="80" height="40" as="geometry"/>
                </mxCell>
                <mxCell id="648" value="PrintMatrix" style="shape=process;whiteSpace=wrap;html=1;backgroundOutline=1;size=0.038461538461538027;fillColor=#CCE5FF;fontSize=11;strokeColor=#000000;fontColor=#000000;rounded=0;labelBackgroundColor=none;endArrow=classic;" vertex="1" parent="1">
                    <mxGeometry x="920" y="70" width="180" height="40" as="geometry"/>
                </mxCell>
                <mxCell id="649" value="" style="edgeStyle=none;rounded=0;orthogonalLoop=1;jettySize=auto;html=1;fillColor=#FFFFFF;strokeColor=#000000;fontColor=#000000;labelBackgroundColor=none;" edge="1" parent="1" source="650" target="652">
                    <mxGeometry relative="1" as="geometry"/>
                </mxCell>
                <mxCell id="650" value="matrix" style="shape=parallelogram;perimeter=parallelogramPerimeter;whiteSpace=wrap;html=1;fixedSize=1;fillColor=#FFFFCC;fontSize=11;strokeColor=#000000;fontColor=#000000;rounded=0;labelBackgroundColor=none;endArrow=classic;" vertex="1" parent="1">
                    <mxGeometry x="930" y="190" width="160" height="40" as="geometry"/>
                </mxCell>
                <mxCell id="651" value="" style="edgeStyle=none;rounded=0;orthogonalLoop=1;jettySize=auto;html=1;entryX=0.5;entryY=0;entryDx=0;entryDy=0;fillColor=#FFFFFF;strokeColor=#000000;fontColor=#000000;labelBackgroundColor=none;" edge="1" parent="1" source="652" target="636">
                    <mxGeometry relative="1" as="geometry"/>
                </mxCell>
                <mxCell id="652" value="len1 = Dimension1(matrix)&lt;br&gt;len2 = Dimension2(matrix)&amp;nbsp;&lt;br&gt;len3 = Dimension3(matrix)" style="whiteSpace=wrap;html=1;rounded=0;fontSize=11;fillColor=#FFFFFF;strokeColor=#000000;fontColor=#000000;labelBackgroundColor=none;endArrow=classic;" vertex="1" parent="1">
                    <mxGeometry x="910" y="250" width="200" height="57.5" as="geometry"/>
                </mxCell>
                <mxCell id="653" value="matrix[i, j, k]" style="shape=document;whiteSpace=wrap;html=1;boundedLbl=1;rounded=0;fontSize=11;fillColor=#FFFFCC;strokeColor=#000000;fontColor=#000000;labelBackgroundColor=none;endArrow=classic;" vertex="1" parent="1">
                    <mxGeometry x="950" y="537.5" width="120" height="62.5" as="geometry"/>
                </mxCell>
                <mxCell id="654" value="end" style="ellipse;whiteSpace=wrap;html=1;fillColor=#FFE6CC;fontSize=11;strokeColor=#000000;fontColor=#000000;rounded=0;labelBackgroundColor=none;endArrow=classic;" vertex="1" parent="1">
                    <mxGeometry x="130" y="370" width="80" height="40" as="geometry"/>
                </mxCell>
                <mxCell id="655" value="end" style="ellipse;whiteSpace=wrap;html=1;fillColor=#FFE6CC;rounded=0;fontSize=11;strokeColor=#000000;fontColor=#000000;labelBackgroundColor=none;endArrow=classic;" vertex="1" parent="1">
                    <mxGeometry x="700" y="457.5" width="80" height="40" as="geometry"/>
                </mxCell>
            </root>
        </mxGraphModel>
    </diagram>
</mxfile>